<?xml version="1.0" standalone="no"?>
<!DOCTYPE svg PUBLIC "-//W3C//DTD SVG 20010904//EN"
 "http://www.w3.org/TR/2001/REC-SVG-20010904/DTD/svg10.dtd">
<svg version="1.0" xmlns="http://www.w3.org/2000/svg"
 width="256.000000pt" height="256.000000pt" viewBox="0 0 256.000000 256.000000"
 preserveAspectRatio="xMidYMid meet">
<metadata>
Created by potrace 1.13, written by Peter Selinger 2001-2015
</metadata>
<g transform="translate(0.000000,256.000000) scale(0.100000,-0.100000)"
fill="#000000" stroke="none">
<path d="M552 2502 c-12 -4 -31 -22 -43 -41 l-20 -33 25 6 c14 3 26 2 26 -3 0
-14 -26 -32 -35 -23 -4 4 -4 -3 -1 -15 5 -17 3 -23 -8 -23 -8 0 -17 -14 -21
-32 -4 -18 -11 -35 -16 -38 -4 -3 -10 -23 -12 -44 l-4 -38 23 28 c13 16 26 37
29 47 6 16 10 14 44 -12 26 -21 44 -28 59 -24 24 6 28 18 12 28 -8 5 -8 11 0
20 8 10 4 12 -20 9 -33 -4 -35 0 -17 39 l12 26 22 -27 21 -27 10 35 c6 19 11
27 11 18 1 -19 9 -22 35 -12 17 7 22 44 7 60 -5 5 -12 18 -15 29 -3 11 -3 -1
0 -27 5 -45 -8 -73 -20 -43 -3 9 -12 12 -22 8 -14 -5 -16 -1 -11 23 2 16 9 44
15 62 l11 32 -37 -1 c-20 -1 -47 -4 -60 -7z"/>
<path d="M1215 2463 c-16 -2 -63 -11 -103 -20 -64 -14 -73 -19 -79 -42 -3 -14
-16 -41 -30 -58 -19 -27 -22 -37 -13 -53 12 -23 22 -27 14 -5 -4 10 0 15 13
15 10 0 24 5 31 12 9 9 15 9 23 1 19 -19 -17 -66 -45 -61 -22 4 -23 3 -15 -31
5 -20 9 -38 9 -41 0 -4 -17 -4 -37 -2 -26 2 -34 0 -24 -6 16 -12 0 -46 -29
-62 -23 -12 -27 -32 -5 -24 22 9 19 -22 -6 -62 -11 -19 -19 -46 -18 -61 2 -16
0 -33 -4 -39 -3 -6 -11 -24 -17 -39 -10 -25 -9 -27 5 -15 9 8 24 30 34 49 9
20 23 35 29 33 7 -1 12 -1 12 0 0 2 11 29 23 60 l23 57 84 -77 c46 -42 81 -71
76 -64 -8 13 -2 16 47 26 34 8 35 29 2 54 -27 21 -32 32 -14 32 11 0 39 25 39
35 0 3 -14 -2 -31 -11 l-32 -16 6 41 c3 23 1 41 -4 41 -5 0 -9 -11 -9 -24 0
-13 -7 -27 -16 -30 -23 -9 -24 -8 -24 13 0 29 11 51 24 51 8 0 11 12 8 35 -3
22 0 35 7 35 7 0 9 -4 6 -10 -3 -5 -1 -10 4 -10 6 0 11 -6 11 -13 0 -7 11 -24
23 -38 13 -13 26 -31 29 -39 3 -10 10 -5 22 18 9 17 21 32 26 32 6 0 5 11 -2
25 -9 19 -9 28 0 37 9 9 12 6 12 -14 0 -19 6 -27 25 -30 14 -3 30 1 36 8 6 8
15 11 20 8 9 -5 13 8 10 39 -1 9 3 17 8 17 18 0 13 15 -15 45 -21 22 -25 35
-21 61 8 48 -5 50 -21 3 -12 -35 -11 -43 1 -57 23 -26 5 -112 -24 -112 -5 0
-6 6 -4 13 6 17 -26 56 -32 40 -9 -24 -32 -13 -41 20 -7 25 -5 41 11 72 11 22
25 64 32 93 l12 52 -26 -1 c-14 -1 -39 -4 -56 -6z"/>
<path d="M100 2215 c-23 -24 -23 -25 -5 -45 16 -18 31 -20 145 -20 113 0 128
2 148 21 l22 20 -29 25 c-27 22 -37 24 -143 24 -109 0 -116 -1 -138 -25z"/>
<path d="M565 2114 l-30 -43 -27 29 -27 30 -161 0 -161 0 -24 -26 c-30 -33
-30 -35 -4 -68 19 -24 26 -26 100 -26 43 0 79 -4 79 -9 0 -6 11 -22 25 -37 14
-15 25 -32 25 -39 0 -7 9 -20 19 -29 19 -17 19 -17 14 3 -3 12 -10 21 -16 21
-6 0 -8 2 -5 5 9 9 122 -36 139 -55 8 -10 29 -21 46 -24 39 -9 57 -29 50 -56
-5 -19 0 -20 61 -20 58 0 142 14 142 24 0 2 -7 20 -15 39 -8 20 -15 49 -15 65
0 15 -7 37 -15 48 -8 10 -15 27 -15 36 0 22 -29 27 -63 10 -26 -13 -32 -12
-55 5 -37 27 -57 88 -41 125 18 44 7 41 -26 -8z"/>
<path d="M1329 1974 c-6 -8 -18 -14 -25 -14 -8 0 -13 -3 -12 -7 1 -5 -3 -18
-10 -31 -7 -12 -10 -27 -7 -32 3 -5 -5 -21 -19 -35 -22 -22 -23 -25 -6 -25 10
0 22 5 26 11 6 11 46 30 90 43 18 5 24 1 32 -24 8 -23 17 -30 36 -30 14 0 28
-4 31 -10 9 -15 35 -12 35 4 0 19 18 24 57 16 40 -9 83 -1 90 16 3 8 3 24 -1
37 -5 20 -11 23 -46 20 -36 -3 -43 0 -58 27 -9 16 -20 30 -24 30 -13 0 -20
-21 -9 -33 5 -7 6 -18 2 -25 -6 -9 -12 -7 -26 8 -18 20 -52 29 -40 11 3 -5 1
-12 -5 -16 -6 -4 -8 -11 -5 -16 4 -5 -1 -9 -9 -9 -8 0 -18 5 -21 10 -3 6 1 10
9 10 9 0 16 7 16 15 0 8 -4 15 -9 15 -4 0 -24 11 -44 24 -30 21 -38 22 -48 10z"/>
<path d="M1900 1799 c0 -4 9 -13 21 -20 29 -20 14 -54 -47 -108 -52 -45 -63
-47 -81 -10 -19 35 -120 145 -128 138 -3 -4 7 -22 22 -40 16 -19 40 -51 53
-71 14 -20 35 -42 47 -47 13 -6 23 -16 23 -22 0 -11 25 -8 65 8 30 11 9 -63
-37 -136 -39 -62 -40 -65 -33 -127 6 -59 5 -66 -19 -95 -14 -17 -26 -42 -26
-56 0 -15 -8 -36 -17 -47 -10 -11 4 -3 30 19 36 28 51 49 59 80 12 44 53 104
63 93 4 -3 2 -17 -5 -30 -11 -22 -11 -23 6 -3 32 39 94 181 109 250 19 88 20
209 2 223 -13 12 -107 12 -107 1z"/>
<path d="M1176 1738 c-11 -18 -39 -61 -63 -96 l-44 -62 -40 49 c-21 28 -48 55
-58 61 -25 13 -620 14 -654 1 -27 -11 -97 -95 -97 -117 0 -8 22 -37 48 -64
l48 -50 147 0 147 0 22 -44 c13 -29 30 -47 45 -51 13 -3 23 -11 23 -17 0 -19
41 -57 55 -52 7 3 25 -2 38 -11 14 -9 40 -17 59 -17 18 -1 47 -12 64 -25 17
-12 36 -23 43 -23 23 0 70 -30 76 -49 3 -12 22 -23 53 -31 112 -29 138 -52
126 -114 -3 -20 -11 -36 -16 -36 -19 0 -165 40 -202 55 -50 21 -45 -2 5 -28
59 -29 147 -41 299 -40 149 0 260 18 307 49 26 16 30 34 9 34 -15 0 -26 21
-26 51 0 11 -7 31 -16 45 -12 17 -15 38 -12 68 6 47 -11 97 -42 131 -10 11
-20 34 -22 50 -2 24 -7 30 -25 28 -13 -2 -23 2 -23 7 0 14 -33 13 -48 -2 -24
-24 -84 -38 -107 -25 -53 28 -96 78 -102 115 -3 20 -11 46 -16 57 -15 28 -9
84 13 120 10 17 15 38 11 48 -5 15 -9 12 -25 -15z"/>
<path d="M673 831 c-45 -6 -60 -13 -98 -51 -86 -84 -125 -143 -125 -187 0 -37
7 -48 88 -131 l87 -91 65 -6 c36 -3 329 -5 651 -3 l586 3 34 26 c19 14 61 59
94 100 58 70 61 76 55 115 -5 31 -21 59 -69 116 -104 124 -34 113 -721 114
-327 1 -619 -1 -647 -5z m427 -86 c0 -25 -1 -25 -90 -25 -83 0 -93 -2 -115
-25 -32 -31 -32 -74 0 -109 23 -24 30 -26 115 -26 l90 0 0 -31 0 -31 -95 4
c-75 3 -101 8 -122 24 -42 31 -65 82 -58 128 13 85 61 115 188 116 86 0 87 0
87 -25z m310 0 l0 -25 -110 0 c-91 0 -112 -3 -117 -15 -9 -25 3 -29 106 -35
116 -6 131 -15 131 -76 0 -78 -40 -97 -195 -92 -79 3 -90 5 -93 22 -6 30 17
36 126 35 110 -2 136 7 116 39 -9 13 -31 18 -107 22 -106 6 -137 21 -137 70 0
61 39 79 173 80 l107 0 0 -25z m320 0 l0 -25 -110 0 c-91 0 -112 -3 -117 -15
-9 -25 3 -29 106 -35 115 -6 131 -15 131 -74 0 -32 -6 -48 -24 -65 -22 -20
-35 -23 -142 -24 -109 -2 -119 0 -122 17 -6 30 17 36 126 35 110 -2 136 7 116
39 -9 13 -31 18 -107 22 -106 6 -137 21 -137 70 0 61 39 79 173 80 l107 0 0
-25z"/>
</g>
</svg>
